<?xml version="1.0" encoding="UTF-8" standalone="no"?>
<svg
   xmlns:dc="http://purl.org/dc/elements/1.1/"
   xmlns:cc="http://creativecommons.org/ns#"
   xmlns:rdf="http://www.w3.org/1999/02/22-rdf-syntax-ns#"
   xmlns:svg="http://www.w3.org/2000/svg"
   xmlns="http://www.w3.org/2000/svg"
   id="svg8"
   version="1.1"
   viewBox="0 0 677.33329 270.93334"
   height="1024"
   width="2560">
  <defs
     id="defs2" />
  <metadata
     id="metadata5">
    <rdf:RDF>
      <cc:Work
         rdf:about="">
        <dc:format>image/svg+xml</dc:format>
        <dc:type
           rdf:resource="http://purl.org/dc/dcmitype/StillImage" />
        <dc:title></dc:title>
      </cc:Work>
    </rdf:RDF>
  </metadata>
  <g
     transform="translate(0,-26.066655)"
     id="layer1">
    <path
       id="path1163"
       d="M 67.733333,93.799997 V 116.37777 L 112.88888,93.799997 Z m 90.311097,0 -90.311097,45.155553 v 45.15555 l 90.311097,45.15555 h 45.15555 v -22.57778 l -90.3111,-45.15555 90.3111,-45.15555 V 93.799997 Z m 0.99908,4.233333 h 26.22268 L 71.966666,154.68309 v -13.11065 z m -73.37639,67.73332 h 26.22268 l 87.07685,43.53911 v 13.11066 z m -17.933787,40.92222 v 22.57778 h 45.155547 z"
       style="opacity:1;vector-effect:none;fill:#000000;fill-opacity:1;stroke:none;stroke-width:0.70555544px;stroke-linecap:butt;stroke-linejoin:miter;stroke-miterlimit:4;stroke-dasharray:none;stroke-dashoffset:0;stroke-opacity:1" />
    <path
       id="path2772"
       transform="matrix(0.26458333,0,0,0.26458333,0,26.066655)"
       d="m 1286.125,512 -103.3242,202.77344 -27.0918,52.89844 h 57.9336 l 25.1484,-49.11133 47.334,-92.8125 47.332,92.8125 25.1426,49.11133 h 57.9336 l -27.084,-52.89258 z"
       style="font-style:normal;font-variant:normal;font-weight:normal;font-stretch:normal;font-size:84.54589844px;line-height:1.25;font-family:Azonix;-inkscape-font-specification:'Azonix, Normal';font-variant-ligatures:normal;font-variant-caps:normal;font-variant-numeric:normal;font-feature-settings:normal;text-align:start;letter-spacing:0px;word-spacing:0px;writing-mode:lr-tb;direction:ltr;text-anchor:start;fill:#000000;fill-opacity:1;stroke:none;stroke-width:16.40892601;stroke-miterlimit:4;stroke-dasharray:none;stroke-opacity:1" />
    <path
       id="path2770"
       transform="matrix(0.26458333,0,0,0.26458333,0,26.066655)"
       d="m 2167.9512,512 -103.3321,202.77344 -27.0839,52.89844 h 64.3183 l 23.2598,-45.43555 42.8379,-83.99219 42.8281,83.99219 23.2676,45.43555 h 64.3125 l -27.084,-52.89258 z"
       style="font-style:normal;font-variant:normal;font-weight:normal;font-stretch:normal;font-size:84.54589844px;line-height:1.25;font-family:Azonix;-inkscape-font-specification:'Azonix, Normal';font-variant-ligatures:normal;font-variant-caps:normal;font-variant-numeric:normal;font-feature-settings:normal;text-align:start;letter-spacing:0px;word-spacing:0px;writing-mode:lr-tb;direction:ltr;text-anchor:start;fill:#000000;fill-opacity:1;stroke:none;stroke-width:16.40892601;stroke-miterlimit:4;stroke-dasharray:none;stroke-opacity:1" />
    <path
       id="path2768"
       transform="matrix(0.26458333,0,0,0.26458333,0,26.066655)"
       d="m 1748.3496,513.42383 v 254.24805 h 57.3711 V 617.53125 l 27.0996,20.71289 38.4297,29.76367 38.4297,-29.76367 27.0996,-20.70508 v 150.13282 h 57.3789 V 513.42383 l -54.168,41.60547 h -0.01 l -68.7324,52.8457 -68.7324,-52.8457 z"
       style="font-style:normal;font-variant:normal;font-weight:normal;font-stretch:normal;font-size:84.54589844px;line-height:1.25;font-family:Azonix;-inkscape-font-specification:'Azonix, Normal';font-variant-ligatures:normal;font-variant-caps:normal;font-variant-numeric:normal;font-feature-settings:normal;text-align:start;letter-spacing:0px;word-spacing:0px;writing-mode:lr-tb;direction:ltr;text-anchor:start;fill:#000000;fill-opacity:1;stroke:none;stroke-width:16.40892601;stroke-miterlimit:4;stroke-dasharray:none;stroke-opacity:1" />
    <path
       id="path2766"
       transform="matrix(0.26458333,0,0,0.26458333,0,26.066655)"
       d="m 896,522.17969 v 245.82422 h 60.23438 V 522.17969 h -8.20704 z"
       style="font-style:normal;font-variant:normal;font-weight:normal;font-stretch:normal;font-size:84.54589844px;line-height:1.25;font-family:Azonix;-inkscape-font-specification:'Azonix, Normal';font-variant-ligatures:normal;font-variant-caps:normal;font-variant-numeric:normal;font-feature-settings:normal;text-align:start;letter-spacing:0px;word-spacing:0px;writing-mode:lr-tb;direction:ltr;text-anchor:start;fill:#000000;fill-opacity:1;stroke:none;stroke-width:16.40892601;stroke-miterlimit:4;stroke-dasharray:none;stroke-opacity:1" />
    <path
       id="path2764"
       transform="matrix(0.26458333,0,0,0.26458333,0,26.066655)"
       d="m 1059.168,522.17969 -102.17191,114.79492 103.53711,131.0293 h 68.7695 L 1021.4766,634.63477 1124.4473,522.17969 h -18.6407 z"
       style="font-style:normal;font-variant:normal;font-weight:normal;font-stretch:normal;font-size:84.54589844px;line-height:1.25;font-family:Azonix;-inkscape-font-specification:'Azonix, Normal';font-variant-ligatures:normal;font-variant-caps:normal;font-variant-numeric:normal;font-feature-settings:normal;text-align:start;letter-spacing:0px;word-spacing:0px;writing-mode:lr-tb;direction:ltr;text-anchor:start;fill:#000000;fill-opacity:1;stroke:none;stroke-width:16.40892601;stroke-miterlimit:4;stroke-dasharray:none;stroke-opacity:1" />
    <path
       id="path2762"
       transform="matrix(0.26458333,0,0,0.26458333,0,26.066655)"
       d="m 1459.916,522.19336 v 245.81055 h 57.3731 V 662.47852 h 34.4511 c 12.5052,0 23.1165,6.33943 29.166,15.76171 l 0.7735,1.48243 22.8848,42.9707 24.1601,45.31055 h 59.2695 l -27.0761,-52.88477 -28.3242,-56.375 c 3.1337,-0.91192 6.4552,-1.22641 9.4199,-2.62109 h 0.01 c 24.1206,-11.15796 40.7637,-35.66369 40.7637,-63.78711 0,-19.24982 -7.8202,-36.73506 -20.3437,-49.62696 l -0.045,-0.0449 -0.037,-0.0449 c -12.6209,-12.62098 -30.1426,-20.42578 -49.3925,-20.42578 z m 57.3731,42.17383 88.6272,0 c 6.0239,0 11.8782,2.83714 15.7317,6.06054 3.3112,2.76972 10.5172,10.49246 10.5172,21.79102 0,12.17654 -10.4544,23.05519 -18.8306,26.10156 l -0.4536,0.16992 -0.4415,0.18555 c -2.7545,1.15204 -7.8306,1.39453 -6.5232,1.39453 h -0.044 l -88.5852,0.52344 z"
       style="font-style:normal;font-variant:normal;font-weight:normal;font-stretch:normal;font-size:84.54589844px;line-height:1.25;font-family:Azonix;-inkscape-font-specification:'Azonix, Normal';font-variant-ligatures:normal;font-variant-caps:normal;font-variant-numeric:normal;font-feature-settings:normal;text-align:start;letter-spacing:0px;word-spacing:0px;writing-mode:lr-tb;direction:ltr;text-anchor:start;fill:#000000;fill-opacity:1;stroke:none;stroke-width:16.40892601;stroke-miterlimit:4;stroke-dasharray:none;stroke-opacity:1" />
    <path
       id="path1298"
       transform="matrix(0.26458333,0,0,0.26458333,0,26.066655)"
       d="M 992 256 L 896 304 L 896 352 L 896 353 L 896 400 L 992 448 L 1088 448 L 897 352.5 L 1088 257 L 992 256 z M 1197.5508 256 C 1144.6137 256 1101.5508 299.06288 1101.5508 352 C 1101.5508 404.93712 1144.6137 448 1197.5508 448 C 1250.4879 448 1293.5508 404.93712 1293.5508 352 C 1293.5508 299.06288 1250.4879 256 1197.5508 256 z M 1338.8027 256 L 1338.8027 448 L 1434.8027 448 C 1461.1341 448 1484.9973 437.30229 1502.2773 419.74805 C 1504.1973 417.82801 1506.116 415.90824 1507.7617 413.98828 C 1522.0246 397.25684 1530.5273 375.58856 1530.5273 352 C 1530.5273 299.06288 1487.4645 256.27344 1434.5273 256.27344 L 1338.8027 256 z M 1623.6523 256 C 1595.1267 256 1572.0859 279.31417 1572.0859 307.83984 L 1572.0859 396.16016 C 1572.0859 424.68588 1595.1267 448 1623.6523 448 L 1740.4785 448 L 1740.4785 420.71484 L 1623.6523 420.71484 C 1614.0524 420.71484 1606.0977 412.76016 1606.0977 403.16016 L 1606.0977 355.70508 L 1706.1914 355.70508 L 1706.1914 329.91797 L 1606.0977 329.91797 L 1606.0977 299.33984 C 1606.0977 289.73981 1614.0524 281.78516 1623.6523 281.78516 L 1740.4785 281.78516 L 1740.4785 256 L 1623.6523 256 z M 1197.5508 282.50781 C 1231.5622 282.50781 1259.2637 313.70197 1259.2637 352 C 1259.2637 390.2981 1231.5622 421.49219 1197.5508 421.49219 C 1163.5394 421.49219 1135.8359 390.2981 1135.8359 352 C 1135.8359 313.70197 1163.5394 282.50781 1197.5508 282.50781 z M 1372.8145 283.06055 L 1434.5273 283.06055 C 1468.5908 283.06055 1496.2422 314.12871 1496.2422 352.27344 C 1496.2422 390.41817 1468.5388 421.48828 1434.5273 421.48828 L 1372.8145 421.48828 L 1372.8145 283.06055 z "
       style="font-style:normal;font-variant:normal;font-weight:normal;font-stretch:normal;font-size:60.47619247px;line-height:1.25;font-family:Azonix;-inkscape-font-specification:'Azonix, Normal';font-variant-ligatures:normal;font-variant-caps:normal;font-variant-numeric:normal;font-feature-settings:normal;text-align:end;letter-spacing:5.4417944px;word-spacing:0px;writing-mode:lr-tb;direction:rtl;text-anchor:end;fill:#000000;fill-opacity:1;stroke:none;stroke-width:51.42663574" />
  </g>
</svg>
